<?xml version="1.0" encoding="UTF-8"?>
<!DOCTYPE svg PUBLIC "-//W3C//DTD SVG 1.1//EN" "http://www.w3.org/Graphics/SVG/1.1/DTD/svg11.dtd">
<svg xmlns="http://www.w3.org/2000/svg" version="1.1" width="113px" height="114px" style="shape-rendering:geometricPrecision; text-rendering:geometricPrecision; image-rendering:optimizeQuality; fill-rule:evenodd; clip-rule:evenodd" xmlns:xlink="http://www.w3.org/1999/xlink">
<g><path style="opacity:0.129" fill="#7f6b3f" d="M 61.5,104.5 C 90.5483,95.7954 103.715,76.1287 101,45.5C 99.337,41.5357 97.6703,37.5357 96,33.5C 94.3886,29.7252 91.8886,26.7252 88.5,24.5C 83.6166,18.2239 77.2833,14.2239 69.5,12.5C 67.8516,11.0735 65.8516,10.2401 63.5,10C 56.8333,9.33333 50.1667,9.33333 43.5,10C 42.5842,10.2784 41.9175,10.7784 41.5,11.5C 39.3469,12.5729 37.3469,12.5729 35.5,11.5C 66.5193,1.11098 88.686,10.7776 102,40.5C 108.412,64.2677 101.912,83.4344 82.5,98C 76.1871,102.494 69.1871,104.661 61.5,104.5 Z"/></g>
<g><path style="opacity:0.996" fill="#484643" d="M 69.5,12.5 C 64.4051,11.3852 60.7384,13.0518 58.5,17.5C 55.6894,18.0796 53.0227,18.7463 50.5,19.5C 46.1844,19.3296 42.1844,20.3296 38.5,22.5C 39.0483,19.9162 40.715,18.9162 43.5,19.5C 43.5,18.5 43.5,17.5 43.5,16.5C 44.8333,16.5 46.1667,16.5 47.5,16.5C 47.1367,14.0885 48.1367,12.5885 50.5,12C 47.5184,11.502 44.5184,11.3354 41.5,11.5C 41.9175,10.7784 42.5842,10.2784 43.5,10C 50.1667,9.33333 56.8333,9.33333 63.5,10C 65.8516,10.2401 67.8516,11.0735 69.5,12.5 Z"/></g>
<g><path style="opacity:0.996" fill="#070707" d="M 50.5,19.5 C 59.8967,17.982 68.23,19.982 75.5,25.5C 75.33,26.8221 75.6634,27.9887 76.5,29C 75.2559,29.4561 74.4226,28.9561 74,27.5C 73.6667,28.5 73.3333,29.5 73,30.5C 72.3292,29.7476 71.4959,29.4142 70.5,29.5C 61.6584,25.1232 52.6584,24.4565 43.5,27.5C 40.8068,28.8466 38.1401,30.1799 35.5,31.5C 33.2627,32.449 30.9294,33.1156 28.5,33.5C 28.5,32.5 28.5,31.5 28.5,30.5C 31.0948,26.8743 34.4281,24.2076 38.5,22.5C 42.1844,20.3296 46.1844,19.3296 50.5,19.5 Z"/></g>
<g><path style="opacity:0.996" fill="#1c1b1a" d="M 69.5,12.5 C 77.2833,14.2239 83.6166,18.2239 88.5,24.5C 86.9397,24.4809 85.4397,24.1476 84,23.5C 79.4737,17.6002 77.9737,18.2668 79.5,25.5C 81.1667,26.6667 82.8333,27.8333 84.5,29C 83.4829,30.0495 83.3162,31.2161 84,32.5C 86.7846,37.0263 89.2846,41.693 91.5,46.5C 88.995,45.259 87.495,46.259 87,49.5C 86.8227,53.3563 86.3227,57.023 85.5,60.5C 86.5387,50.6456 83.8721,41.979 77.5,34.5C 80.1579,30.2289 79.4912,27.2289 75.5,25.5C 68.23,19.982 59.8967,17.982 50.5,19.5C 53.0227,18.7463 55.6894,18.0796 58.5,17.5C 60.7384,13.0518 64.4051,11.3852 69.5,12.5 Z"/></g>
<g><path style="opacity:0.996" fill="#232323" d="M 70.5,29.5 C 70.33,30.8221 70.6634,31.9887 71.5,33C 70.5,33.8333 69.5,34.6667 68.5,35.5C 71.2286,37.8904 73.5619,40.557 75.5,43.5C 73.7868,44.6354 73.1201,46.302 73.5,48.5C 71.6895,45.2332 69.1895,42.5665 66,40.5C 65.228,40.6448 64.5613,40.9781 64,41.5C 63.5291,43.2464 62.8624,44.913 62,46.5C 58.7154,44.8627 55.2154,44.1961 51.5,44.5C 52.9574,42.1511 54.2908,39.8178 55.5,37.5C 53.5,37.5 51.5,37.5 49.5,37.5C 54.3093,36.2325 59.1427,36.5658 64,38.5C 64.8333,37.6667 65.6667,36.8333 66.5,36C 64.9991,34.7485 63.3325,33.7485 61.5,33C 56.4477,32.2742 51.4477,32.4409 46.5,33.5C 51.367,28.7634 50.367,26.7634 43.5,27.5C 52.6584,24.4565 61.6584,25.1232 70.5,29.5 Z"/></g>
<g><path style="opacity:0.985" fill="#090706" d="M 88.5,24.5 C 91.8886,26.7252 94.3886,29.7252 96,33.5C 97.6703,37.5357 99.337,41.5357 101,45.5C 103.715,76.1287 90.5483,95.7954 61.5,104.5C 59.1667,104.5 56.8333,104.5 54.5,104.5C 51.6467,103.046 48.6467,102.046 45.5,101.5C 47.6979,100.835 50.0312,100.168 52.5,99.5C 51.624,98.7492 50.624,98.2492 49.5,98C 51.8912,97.3086 51.8912,96.3086 49.5,95C 54.4576,94.9709 59.1243,94.1376 63.5,92.5C 68.7162,92.2539 73.0495,90.2539 76.5,86.5C 81.4822,83.6828 85.3156,79.6828 88,74.5C 90.0556,70.7323 91.2223,66.7323 91.5,62.5C 92.6364,57.3186 92.6364,51.9853 91.5,46.5C 89.2846,41.693 86.7846,37.0263 84,32.5C 83.3162,31.2161 83.4829,30.0495 84.5,29C 82.8333,27.8333 81.1667,26.6667 79.5,25.5C 77.9737,18.2668 79.4737,17.6002 84,23.5C 85.4397,24.1476 86.9397,24.4809 88.5,24.5 Z"/></g>
<g><path style="opacity:0.996" fill="#090909" d="M 28.5,30.5 C 28.5,31.5 28.5,32.5 28.5,33.5C 30.9294,33.1156 33.2627,32.449 35.5,31.5C 26.3413,39.956 22.6747,50.2894 24.5,62.5C 26.9369,72.2558 32.6035,79.2558 41.5,83.5C 41.1667,85.5 40.8333,87.5 40.5,89.5C 37.4359,89.8563 34.7693,89.0229 32.5,87C 27.8053,83.1584 24.1386,78.6584 21.5,73.5C 18.0329,66.9687 16.6995,59.9687 17.5,52.5C 18.519,43.7953 22.1856,36.462 28.5,30.5 Z"/></g>
<g><path style="opacity:0.996" fill="#6f6f6f" d="M 43.5,27.5 C 50.367,26.7634 51.367,28.7634 46.5,33.5C 37.0852,37.3055 31.7519,44.3055 30.5,54.5C 29.6862,56.631 29.1862,58.9644 29,61.5C 28.1667,62.5 27.3333,63.5 26.5,64.5C 25.8182,63.7573 25.1515,63.0906 24.5,62.5C 22.6747,50.2894 26.3413,39.956 35.5,31.5C 38.1401,30.1799 40.8068,28.8466 43.5,27.5 Z"/></g>
<g><path style="opacity:0.996" fill="#080808" d="M 75.5,25.5 C 79.4912,27.2289 80.1579,30.2289 77.5,34.5C 83.8721,41.979 86.5387,50.6456 85.5,60.5C 84.4222,63.4021 83.7556,66.4021 83.5,69.5C 82.1103,70.8993 81.1103,72.5659 80.5,74.5C 77.141,77.5285 73.8076,80.5285 70.5,83.5C 67.3019,85.4083 63.9686,85.7416 60.5,84.5C 57.4439,86.2892 54.1106,86.9559 50.5,86.5C 50.5,85.1667 50.5,83.8333 50.5,82.5C 53.6981,83.0356 56.3647,82.369 58.5,80.5C 74.0099,76.4916 80.8432,66.4916 79,50.5C 78.3471,47.8608 77.1804,45.5274 75.5,43.5C 73.5619,40.557 71.2286,37.8904 68.5,35.5C 69.5,34.6667 70.5,33.8333 71.5,33C 70.6634,31.9887 70.33,30.8221 70.5,29.5C 71.4959,29.4142 72.3292,29.7476 73,30.5C 73.3333,29.5 73.6667,28.5 74,27.5C 74.4226,28.9561 75.2559,29.4561 76.5,29C 75.6634,27.9887 75.33,26.8221 75.5,25.5 Z"/></g>
<g><path style="opacity:0.995" fill="#898784" d="M 28.5,18.5 C 29.3764,18.3691 30.0431,18.7025 30.5,19.5C 25.0024,29.1611 19.5024,38.8277 14,48.5C 12.8456,46.0426 11.5123,46.0426 10,48.5C 9.50042,55.1583 9.33375,61.825 9.5,68.5C 8.5067,59.6822 8.17336,50.6822 8.5,41.5C 9.83333,41.5 11.1667,41.5 12.5,41.5C 12.3398,39.8008 12.5065,38.1341 13,36.5C 14.8486,33.9664 16.5153,31.2997 18,28.5C 22.0011,25.6649 25.5011,22.3316 28.5,18.5 Z"/></g>
<g><path style="opacity:0.996" fill="#707070" d="M 45.5,39.5 C 47.3547,39.272 48.1881,39.9387 48,41.5C 44.8153,45.8693 42.1486,50.5359 40,55.5C 38.871,57.1412 37.371,58.1412 35.5,58.5C 34.3862,49.7239 37.7196,43.3905 45.5,39.5 Z"/></g>
<g><path style="opacity:0.996" fill="#4c4c4c" d="M 49.5,37.5 C 51.5,37.5 53.5,37.5 55.5,37.5C 54.2908,39.8178 52.9574,42.1511 51.5,44.5C 47.2207,45.6122 44.3873,48.2789 43,52.5C 42.1156,56.4326 42.6156,60.0993 44.5,63.5C 43.1667,65.5 41.5,67.1667 39.5,68.5C 37.1954,65.5925 35.8621,62.2592 35.5,58.5C 37.371,58.1412 38.871,57.1412 40,55.5C 42.1486,50.5359 44.8153,45.8693 48,41.5C 48.1881,39.9387 47.3547,39.272 45.5,39.5C 46.287,37.8958 47.6203,37.2291 49.5,37.5 Z"/></g>
<g><path style="opacity:0.996" fill="#0d0d0d" d="M 49.5,37.5 C 47.6203,37.2291 46.287,37.8958 45.5,39.5C 37.7196,43.3905 34.3862,49.7239 35.5,58.5C 35.8621,62.2592 37.1954,65.5925 39.5,68.5C 40.1217,69.6266 40.955,70.6266 42,71.5C 42.7975,73.2588 42.6309,74.9255 41.5,76.5C 34.1478,71.1292 30.4811,63.7959 30.5,54.5C 31.7519,44.3055 37.0852,37.3055 46.5,33.5C 51.4477,32.4409 56.4477,32.2742 61.5,33C 63.3325,33.7485 64.9991,34.7485 66.5,36C 65.6667,36.8333 64.8333,37.6667 64,38.5C 59.1427,36.5658 54.3093,36.2325 49.5,37.5 Z"/></g>
<g><path style="opacity:0.996" fill="#0a0a0a" d="M 73.5,48.5 C 77.0244,62.4656 72.0244,71.4656 58.5,75.5C 54.1309,76.0768 50.1309,75.2435 46.5,73C 48.0368,71.8904 48.7035,70.3904 48.5,68.5C 50.5,68.5 52.5,68.5 54.5,68.5C 64.2175,67.4497 68.2175,62.1163 66.5,52.5C 66.0349,49.5266 64.3682,48.3599 61.5,49C 56.652,54.5063 52.652,60.673 49.5,67.5C 47.5008,66.4924 45.8342,65.159 44.5,63.5C 42.6156,60.0993 42.1156,56.4326 43,52.5C 44.3873,48.2789 47.2207,45.6122 51.5,44.5C 55.2154,44.1961 58.7154,44.8627 62,46.5C 62.8624,44.913 63.5291,43.2464 64,41.5C 64.5613,40.9781 65.228,40.6448 66,40.5C 69.1895,42.5665 71.6895,45.2332 73.5,48.5 Z"/></g>
<g><path style="opacity:0.996" fill="#706e6f" d="M 35.5,11.5 C 37.3469,12.5729 39.3469,12.5729 41.5,11.5C 44.5184,11.3354 47.5184,11.502 50.5,12C 48.1367,12.5885 47.1367,14.0885 47.5,16.5C 46.1667,16.5 44.8333,16.5 43.5,16.5C 43.5,17.5 43.5,18.5 43.5,19.5C 40.715,18.9162 39.0483,19.9162 38.5,22.5C 34.4281,24.2076 31.0948,26.8743 28.5,30.5C 22.1856,36.462 18.519,43.7953 17.5,52.5C 16.6787,55.6414 16.1787,58.9748 16,62.5C 15.2904,63.9733 14.1238,64.6399 12.5,64.5C 12.5323,66.6188 11.5323,67.9522 9.5,68.5C 9.33375,61.825 9.50042,55.1583 10,48.5C 11.5123,46.0426 12.8456,46.0426 14,48.5C 19.5024,38.8277 25.0024,29.1611 30.5,19.5C 30.0431,18.7025 29.3764,18.3691 28.5,18.5C 30.2094,16.187 32.5428,14.687 35.5,14C 34.2068,13.51 32.8734,13.3433 31.5,13.5C 32.5137,12.3263 33.847,11.6596 35.5,11.5 Z"/></g>
<g><path style="opacity:0.996" fill="#4c4c4c" d="M 91.5,46.5 C 92.6364,51.9853 92.6364,57.3186 91.5,62.5C 91.7989,60.396 91.4656,58.396 90.5,56.5C 89.3591,59.0618 88.5257,61.7284 88,64.5C 87.6667,64.1667 87.3333,63.8333 87,63.5C 86.2838,65.8791 85.1172,67.8791 83.5,69.5C 83.7556,66.4021 84.4222,63.4021 85.5,60.5C 86.3227,57.023 86.8227,53.3563 87,49.5C 87.495,46.259 88.995,45.259 91.5,46.5 Z"/></g>
<g><path style="opacity:0.996" fill="#444444" d="M 66.5,52.5 C 68.2175,62.1163 64.2175,67.4497 54.5,68.5C 55.6323,63.5947 57.799,59.2614 61,55.5C 62.353,54.3147 63.5197,52.9814 64.5,51.5C 65.1835,51.8627 65.8501,52.1961 66.5,52.5 Z"/></g>
<g><path style="opacity:0.996" fill="#212121" d="M 66.5,52.5 C 65.8501,52.1961 65.1835,51.8627 64.5,51.5C 63.5197,52.9814 62.353,54.3147 61,55.5C 57.799,59.2614 55.6323,63.5947 54.5,68.5C 52.5,68.5 50.5,68.5 48.5,68.5C 48.7035,70.3904 48.0368,71.8904 46.5,73C 50.1309,75.2435 54.1309,76.0768 58.5,75.5C 56.31,76.3745 55.31,78.0411 55.5,80.5C 51.4809,80.3542 47.4809,80.0209 43.5,79.5C 43.7709,81.3797 43.1042,82.713 41.5,83.5C 32.6035,79.2558 26.9369,72.2558 24.5,62.5C 25.1515,63.0906 25.8182,63.7573 26.5,64.5C 27.3333,63.5 28.1667,62.5 29,61.5C 29.1862,58.9644 29.6862,56.631 30.5,54.5C 30.4811,63.7959 34.1478,71.1292 41.5,76.5C 42.6309,74.9255 42.7975,73.2588 42,71.5C 40.955,70.6266 40.1217,69.6266 39.5,68.5C 41.5,67.1667 43.1667,65.5 44.5,63.5C 45.8342,65.159 47.5008,66.4924 49.5,67.5C 52.652,60.673 56.652,54.5063 61.5,49C 64.3682,48.3599 66.0349,49.5266 66.5,52.5 Z"/></g>
<g><path style="opacity:0.145" fill="#98895d" d="M 31.5,13.5 C 32.8734,13.3433 34.2068,13.51 35.5,14C 32.5428,14.687 30.2094,16.187 28.5,18.5C 25.5011,22.3316 22.0011,25.6649 18,28.5C 16.5153,31.2997 14.8486,33.9664 13,36.5C 12.5065,38.1341 12.3398,39.8008 12.5,41.5C 11.1667,41.5 9.83333,41.5 8.5,41.5C 8.17336,50.6822 8.5067,59.6822 9.5,68.5C 10.7671,72.6261 12.4338,76.6261 14.5,80.5C 14.0431,81.2975 13.3764,81.6309 12.5,81.5C 10.4862,78.8057 8.98616,75.8057 8,72.5C 7.33333,61.5 7.33333,50.5 8,39.5C 9.66667,35.8333 11.3333,32.1667 13,28.5C 17.5,24 22,19.5 26.5,15C 28.0249,13.9914 29.6916,13.4914 31.5,13.5 Z"/></g>
<g><path style="opacity:0.996" fill="#5e5e5e" d="M 75.5,43.5 C 77.1804,45.5274 78.3471,47.8608 79,50.5C 80.8432,66.4916 74.0099,76.4916 58.5,80.5C 57.5,80.5 56.5,80.5 55.5,80.5C 55.31,78.0411 56.31,76.3745 58.5,75.5C 72.0244,71.4656 77.0244,62.4656 73.5,48.5C 73.1201,46.302 73.7868,44.6354 75.5,43.5 Z"/></g>
<g><path style="opacity:0.996" fill="#484746" d="M 17.5,52.5 C 16.6995,59.9687 18.0329,66.9687 21.5,73.5C 21.722,76.3903 21.0553,79.057 19.5,81.5C 18.0951,81.76 16.7618,82.0934 15.5,82.5C 14.5084,82.3284 13.8417,82.6618 13.5,83.5C 12.6618,83.1583 12.3284,82.4916 12.5,81.5C 13.3764,81.6309 14.0431,81.2975 14.5,80.5C 12.4338,76.6261 10.7671,72.6261 9.5,68.5C 11.5323,67.9522 12.5323,66.6188 12.5,64.5C 14.1238,64.6399 15.2904,63.9733 16,62.5C 16.1787,58.9748 16.6787,55.6414 17.5,52.5 Z"/></g>
<g><path style="opacity:0.996" fill="#6f6f6f" d="M 91.5,62.5 C 91.2223,66.7323 90.0556,70.7323 88,74.5C 85.3156,79.6828 81.4822,83.6828 76.5,86.5C 75.7611,86.631 75.0944,86.4643 74.5,86C 75.8333,85.3333 75.8333,84.6667 74.5,84C 76.3244,80.6854 78.3244,77.5187 80.5,74.5C 81.1103,72.5659 82.1103,70.8993 83.5,69.5C 85.1172,67.8791 86.2838,65.8791 87,63.5C 87.3333,63.8333 87.6667,64.1667 88,64.5C 88.5257,61.7284 89.3591,59.0618 90.5,56.5C 91.4656,58.396 91.7989,60.396 91.5,62.5 Z"/></g>
<g><path style="opacity:0.993" fill="#171616" d="M 21.5,73.5 C 24.1386,78.6584 27.8053,83.1584 32.5,87C 34.7693,89.0229 37.4359,89.8563 40.5,89.5C 40.8333,87.5 41.1667,85.5 41.5,83.5C 43.1042,82.713 43.7709,81.3797 43.5,79.5C 47.4809,80.0209 51.4809,80.3542 55.5,80.5C 56.5,80.5 57.5,80.5 58.5,80.5C 56.3647,82.369 53.6981,83.0356 50.5,82.5C 50.5,83.8333 50.5,85.1667 50.5,86.5C 54.1106,86.9559 57.4439,86.2892 60.5,84.5C 63.9686,85.7416 67.3019,85.4083 70.5,83.5C 68.7284,85.6059 66.5617,87.2726 64,88.5C 63.5348,89.9308 62.7014,91.0975 61.5,92C 62.0944,92.4643 62.7611,92.631 63.5,92.5C 59.1243,94.1376 54.4576,94.9709 49.5,95C 51.8912,96.3086 51.8912,97.3086 49.5,98C 50.624,98.2492 51.624,98.7492 52.5,99.5C 50.0312,100.168 47.6979,100.835 45.5,101.5C 43.5,101.5 41.5,101.5 39.5,101.5C 29.8027,97.4867 21.8027,91.1533 15.5,82.5C 16.7618,82.0934 18.0951,81.76 19.5,81.5C 21.0553,79.057 21.722,76.3903 21.5,73.5 Z"/></g>
<g><path style="opacity:0.996" fill="#4a4a4a" d="M 80.5,74.5 C 78.3244,77.5187 76.3244,80.6854 74.5,84C 75.8333,84.6667 75.8333,85.3333 74.5,86C 75.0944,86.4643 75.7611,86.631 76.5,86.5C 73.0495,90.2539 68.7162,92.2539 63.5,92.5C 62.7611,92.631 62.0944,92.4643 61.5,92C 62.7014,91.0975 63.5348,89.9308 64,88.5C 66.5617,87.2726 68.7284,85.6059 70.5,83.5C 73.8076,80.5285 77.141,77.5285 80.5,74.5 Z"/></g>
<g><path style="opacity:0.11" fill="#8b7d4d" d="M 15.5,82.5 C 21.8027,91.1533 29.8027,97.4867 39.5,101.5C 41.5313,101.972 43.1979,102.972 44.5,104.5C 31.183,101.841 20.8497,94.841 13.5,83.5C 13.8417,82.6618 14.5084,82.3284 15.5,82.5 Z"/></g>
<g><path style="opacity:0.263" fill="#4a4020" d="M 39.5,101.5 C 41.5,101.5 43.5,101.5 45.5,101.5C 48.6467,102.046 51.6467,103.046 54.5,104.5C 51.1667,104.5 47.8333,104.5 44.5,104.5C 43.1979,102.972 41.5313,101.972 39.5,101.5 Z"/></g>
</svg>
