<?xml version="1.0" encoding="UTF-8"?>
<!DOCTYPE svg PUBLIC "-//W3C//DTD SVG 1.1//EN" "http://www.w3.org/Graphics/SVG/1.1/DTD/svg11.dtd">
<svg xmlns="http://www.w3.org/2000/svg" version="1.1" width="113px" height="114px" style="shape-rendering:geometricPrecision; text-rendering:geometricPrecision; image-rendering:optimizeQuality; fill-rule:evenodd; clip-rule:evenodd" xmlns:xlink="http://www.w3.org/1999/xlink">
<g><path style="opacity:0.341" fill="#645849" d="M 40.5,8.5 C 48.1667,8.5 55.8333,8.5 63.5,8.5C 65.1667,9.16667 66.8333,9.83333 68.5,10.5C 67.1667,10.5 65.8333,10.5 64.5,10.5C 57.3709,9.22326 50.3709,9.22326 43.5,10.5C 42.5,10.5 41.5,10.5 40.5,10.5C 40.5,9.83333 40.5,9.16667 40.5,8.5 Z"/></g>
<g><path style="opacity:0.981" fill="#e0dfdf" d="M 40.5,10.5 C 41.5,10.5 42.5,10.5 43.5,10.5C 48.8437,10.334 54.1771,10.5006 59.5,11C 61.1922,12.4007 61.8588,14.2341 61.5,16.5C 58.3112,16.8583 55.3112,17.525 52.5,18.5C 50.2362,19.2186 47.9029,19.552 45.5,19.5C 45.5858,18.5041 45.2524,17.6708 44.5,17C 47.1056,15.7297 49.439,14.0631 51.5,12C 47.446,11.3064 43.446,11.4731 39.5,12.5C 39.8333,11.8333 40.1667,11.1667 40.5,10.5 Z"/></g>
<g><path style="opacity:0.984" fill="#d3d2d1" d="M 43.5,10.5 C 50.3709,9.22326 57.3709,9.22326 64.5,10.5C 67.499,12.3515 70.1656,14.6848 72.5,17.5C 70.2933,18.6348 67.9599,19.3015 65.5,19.5C 61.1578,19.2605 56.8244,18.9272 52.5,18.5C 55.3112,17.525 58.3112,16.8583 61.5,16.5C 61.8588,14.2341 61.1922,12.4007 59.5,11C 54.1771,10.5006 48.8437,10.334 43.5,10.5 Z"/></g>
<g><path style="opacity:0.974" fill="#ebe9e9" d="M 45.5,19.5 C 44.8333,19.5 44.5,19.8333 44.5,20.5C 39.0024,21.2488 34.3358,23.5821 30.5,27.5C 30.3601,25.8762 31.0267,24.7096 32.5,24C 31.8333,23.6667 31.1667,23.3333 30.5,23C 34.6703,22.0867 36.5037,19.5867 36,15.5C 35.3076,16.0253 34.8076,16.6919 34.5,17.5C 30.5056,18.0997 26.839,19.4331 23.5,21.5C 26.5863,18.7774 29.9196,16.2774 33.5,14C 35.4357,13.187 37.4357,12.687 39.5,12.5C 43.446,11.4731 47.446,11.3064 51.5,12C 49.439,14.0631 47.1056,15.7297 44.5,17C 45.2524,17.6708 45.5858,18.5041 45.5,19.5 Z"/></g>
<g><path style="opacity:0.082" fill="#413123" d="M 63.5,8.5 C 75.5172,9.00825 85.1839,14.0083 92.5,23.5C 92.8333,24.8333 93.1667,26.1667 93.5,27.5C 91.1549,24.8231 88.4883,22.4897 85.5,20.5C 83.1989,18.3405 80.8656,16.1738 78.5,14C 77.552,13.5172 76.552,13.3505 75.5,13.5C 72.8427,13.0652 70.5093,12.0652 68.5,10.5C 66.8333,9.83333 65.1667,9.16667 63.5,8.5 Z"/></g>
<g><path style="opacity:0.996" fill="#c7c6c6" d="M 64.5,10.5 C 65.8333,10.5 67.1667,10.5 68.5,10.5C 70.5093,12.0652 72.8427,13.0652 75.5,13.5C 78.006,15.4371 79.506,18.1037 80,21.5C 80.4512,19.0712 81.2845,18.9045 82.5,21C 80.7923,22.5095 79.1256,24.0095 77.5,25.5C 78.8814,26.8814 80.2147,28.2147 81.5,29.5C 80.0762,31.5145 79.4095,33.8478 79.5,36.5C 77.5613,37.0138 76.5613,38.3472 76.5,40.5C 76.8457,41.8492 77.179,43.1825 77.5,44.5C 75.1397,40.4757 71.8064,37.4757 67.5,35.5C 65.0411,33.4723 65.0411,31.4723 67.5,29.5C 66.6602,28.265 65.6602,27.265 64.5,26.5C 65.552,26.6495 66.552,26.4828 67.5,26C 67.1667,25.6667 66.8333,25.3333 66.5,25C 68.0368,23.8904 68.7035,22.3904 68.5,20.5C 67.209,20.7373 66.209,20.404 65.5,19.5C 67.9599,19.3015 70.2933,18.6348 72.5,17.5C 70.1656,14.6848 67.499,12.3515 64.5,10.5 Z"/></g>
<g><path style="opacity:0.991" fill="#bcbaba" d="M 75.5,13.5 C 76.552,13.3505 77.552,13.5172 78.5,14C 80.8656,16.1738 83.1989,18.3405 85.5,20.5C 87.1638,22.6791 86.8305,24.5125 84.5,26C 86.0468,26.3334 87.3801,25.8334 88.5,24.5C 89.9377,26.9977 89.6044,29.1644 87.5,31C 87.8333,31.3333 88.1667,31.6667 88.5,32C 87.5842,32.2784 86.9175,32.7784 86.5,33.5C 84.8333,32.1667 83.1667,30.8333 81.5,29.5C 80.2147,28.2147 78.8814,26.8814 77.5,25.5C 79.1256,24.0095 80.7923,22.5095 82.5,21C 81.2845,18.9045 80.4512,19.0712 80,21.5C 79.506,18.1037 78.006,15.4371 75.5,13.5 Z"/></g>
<g><path style="opacity:0.996" fill="#babab9" d="M 52.5,18.5 C 56.8244,18.9272 61.1578,19.2605 65.5,19.5C 66.209,20.404 67.209,20.7373 68.5,20.5C 68.7035,22.3904 68.0368,23.8904 66.5,25C 66.8333,25.3333 67.1667,25.6667 67.5,26C 66.552,26.4828 65.552,26.6495 64.5,26.5C 62.1944,26.0074 59.861,25.6741 57.5,25.5C 55.5,25.5 53.5,25.5 51.5,25.5C 52.8069,24.1984 52.8069,22.865 51.5,21.5C 49.2573,20.5258 46.924,20.1924 44.5,20.5C 44.5,19.8333 44.8333,19.5 45.5,19.5C 47.9029,19.552 50.2362,19.2186 52.5,18.5 Z"/></g>
<g><path style="opacity:0.996" fill="#9f9e9d" d="M 44.5,20.5 C 46.924,20.1924 49.2573,20.5258 51.5,21.5C 52.8069,22.865 52.8069,24.1984 51.5,25.5C 44.0967,25.95 38.0967,28.95 33.5,34.5C 30.4416,36.9573 28.1083,39.9573 26.5,43.5C 26.5386,42.2438 26.0386,41.2438 25,40.5C 24.556,43.6108 23.2227,46.2775 21,48.5C 21.0833,45.8806 21.25,43.214 21.5,40.5C 23.3045,35.3583 26.3045,31.025 30.5,27.5C 34.3358,23.5821 39.0024,21.2488 44.5,20.5 Z"/></g>
<g><path style="opacity:0.996" fill="#f2f1f1" d="M 30.5,27.5 C 26.3045,31.025 23.3045,35.3583 21.5,40.5C 20.8333,41.1667 20.1667,41.8333 19.5,42.5C 18.1084,39.9746 18.4418,37.8079 20.5,36C 19.1535,33.1494 17.1535,32.3161 14.5,33.5C 16.5293,28.7759 19.5293,24.7759 23.5,21.5C 26.839,19.4331 30.5056,18.0997 34.5,17.5C 34.8076,16.6919 35.3076,16.0253 36,15.5C 36.5037,19.5867 34.6703,22.0867 30.5,23C 31.1667,23.3333 31.8333,23.6667 32.5,24C 31.0267,24.7096 30.3601,25.8762 30.5,27.5 Z"/></g>
<g><path style="opacity:0.996" fill="#e6e6e6" d="M 51.5,25.5 C 53.5,25.5 55.5,25.5 57.5,25.5C 59.2986,26.2696 60.6319,27.603 61.5,29.5C 58.1497,30.7701 54.483,31.7701 50.5,32.5C 46.8976,32.6924 43.8976,34.0257 41.5,36.5C 41.1667,36.5 40.8333,36.5 40.5,36.5C 41.4451,34.4348 42.1117,32.6014 42.5,31C 41.1667,30.3333 39.8333,30.3333 38.5,31C 37.2107,32.8022 35.5441,33.9688 33.5,34.5C 38.0967,28.95 44.0967,25.95 51.5,25.5 Z"/></g>
<g><path style="opacity:0.997" fill="#d6d6d6" d="M 57.5,25.5 C 59.861,25.6741 62.1944,26.0074 64.5,26.5C 65.6602,27.265 66.6602,28.265 67.5,29.5C 65.0411,31.4723 65.0411,33.4723 67.5,35.5C 66.7611,35.369 66.0944,35.5357 65.5,36C 66.5822,37.3297 67.2488,38.8297 67.5,40.5C 66.399,39.2003 65.0657,38.7003 63.5,39C 62.5,40.6667 61.1667,42 59.5,43C 60.3805,43.7083 61.0472,44.5416 61.5,45.5C 60.325,45.281 59.325,45.6143 58.5,46.5C 54.6905,52.6251 51.0238,58.7918 47.5,65C 48.5707,65.8518 49.5707,66.6851 50.5,67.5C 49.1266,67.3433 47.7932,67.51 46.5,68C 45.177,71.8449 43.177,72.3449 40.5,69.5C 39.2485,67.9991 38.2485,66.3325 37.5,64.5C 38.8471,65.1712 40.0138,65.1712 41,64.5C 41.7955,60.6879 42.6288,57.0212 43.5,53.5C 43.5,55.8333 43.5,58.1667 43.5,60.5C 46.0878,60.4567 48.2544,59.4567 50,57.5C 52.6021,53.5262 54.1021,49.1929 54.5,44.5C 53.5,44.5 52.5,44.5 51.5,44.5C 53.6014,42.0863 54.9347,39.4197 55.5,36.5C 54.5,36.5 53.5,36.5 52.5,36.5C 56.7332,33.5759 56.0665,32.2426 50.5,32.5C 54.483,31.7701 58.1497,30.7701 61.5,29.5C 60.6319,27.603 59.2986,26.2696 57.5,25.5 Z"/></g>
<g><path style="opacity:0.063" fill="#412f22" d="M 40.5,8.5 C 40.5,9.16667 40.5,9.83333 40.5,10.5C 40.1667,11.1667 39.8333,11.8333 39.5,12.5C 37.4357,12.687 35.4357,13.187 33.5,14C 29.9196,16.2774 26.5863,18.7774 23.5,21.5C 19.5293,24.7759 16.5293,28.7759 14.5,33.5C 12.7945,35.612 11.4611,37.9453 10.5,40.5C 8.92606,42.1016 8.25939,44.1016 8.5,46.5C 7.50069,57.228 9.00069,67.5613 13,77.5C 13.3826,78.056 13.8826,78.3893 14.5,78.5C 16.7334,83.0678 19.7334,87.0678 23.5,90.5C 24.5274,92.1942 25.8608,93.5275 27.5,94.5C 26.5,94.5 25.5,94.5 24.5,94.5C 16.1818,88.9915 10.6818,81.3248 8,71.5C 1.64467,44.7439 10.1447,24.5772 33.5,11C 35.8997,10.2564 38.233,9.42305 40.5,8.5 Z"/></g>
<g><path style="opacity:0.996" fill="#bababa" d="M 50.5,32.5 C 56.0665,32.2426 56.7332,33.5759 52.5,36.5C 48.7631,36.929 45.4297,38.2623 42.5,40.5C 44.0781,38.6253 43.7448,37.2919 41.5,36.5C 43.8976,34.0257 46.8976,32.6924 50.5,32.5 Z"/></g>
<g><path style="opacity:0.996" fill="#f4f4f3" d="M 19.5,42.5 C 19.4828,44.5648 19.1495,46.5648 18.5,48.5C 17.5655,49.5676 17.2322,50.901 17.5,52.5C 16.9696,57.314 15.6363,61.9807 13.5,66.5C 12.1513,61.4056 12.8179,56.5723 15.5,52C 15.3333,51.5 15.1667,51 15,50.5C 13.3977,52.3073 12.0644,54.3073 11,56.5C 10.5012,52.5138 10.3345,48.5138 10.5,44.5C 10.5,43.1667 10.5,41.8333 10.5,40.5C 11.4611,37.9453 12.7945,35.612 14.5,33.5C 17.1535,32.3161 19.1535,33.1494 20.5,36C 18.4418,37.8079 18.1084,39.9746 19.5,42.5 Z"/></g>
<g><path style="opacity:0.996" fill="#9e9e9e" d="M 21.5,40.5 C 21.25,43.214 21.0833,45.8806 21,48.5C 23.2227,46.2775 24.556,43.6108 25,40.5C 26.0386,41.2438 26.5386,42.2438 26.5,43.5C 25.5778,47.1119 24.9111,50.7785 24.5,54.5C 23.6909,56.2922 23.1909,58.2922 23,60.5C 21.871,62.1412 20.371,63.1412 18.5,63.5C 18.5,58.5 18.5,53.5 18.5,48.5C 19.1495,46.5648 19.4828,44.5648 19.5,42.5C 20.1667,41.8333 20.8333,41.1667 21.5,40.5 Z"/></g>
<g><path style="opacity:0.996" fill="#ebebeb" d="M 52.5,36.5 C 53.5,36.5 54.5,36.5 55.5,36.5C 54.9347,39.4197 53.6014,42.0863 51.5,44.5C 47.243,45.9693 44.5764,48.9693 43.5,53.5C 42.6288,57.0212 41.7955,60.6879 41,64.5C 40.0138,65.1712 38.8471,65.1712 37.5,64.5C 33.6817,55.3048 35.3484,47.3048 42.5,40.5C 45.4297,38.2623 48.7631,36.929 52.5,36.5 Z"/></g>
<g><path style="opacity:0.996" fill="#b0b0b0" d="M 79.5,36.5 C 83.8004,41.9852 86.1337,48.3186 86.5,55.5C 84.9028,54.9095 83.5695,53.9095 82.5,52.5C 81.8676,55.1024 80.8676,57.4357 79.5,59.5C 79.9836,54.2408 79.3169,49.2408 77.5,44.5C 77.179,43.1825 76.8457,41.8492 76.5,40.5C 76.5613,38.3472 77.5613,37.0138 79.5,36.5 Z"/></g>
<g><path style="opacity:0.996" fill="#f0f0f0" d="M 40.5,36.5 C 35.9344,40.0838 32.9344,44.7504 31.5,50.5C 30.8089,56.3798 29.9755,62.3798 29,68.5C 28.5831,67.244 27.7498,66.5774 26.5,66.5C 25.0003,62.6742 24.3336,58.6742 24.5,54.5C 24.9111,50.7785 25.5778,47.1119 26.5,43.5C 28.1083,39.9573 30.4416,36.9573 33.5,34.5C 35.5441,33.9688 37.2107,32.8022 38.5,31C 39.8333,30.3333 41.1667,30.3333 42.5,31C 42.1117,32.6014 41.4451,34.4348 40.5,36.5 Z"/></g>
<g><path style="opacity:0.996" fill="#e1e1e1" d="M 81.5,29.5 C 83.1667,30.8333 84.8333,32.1667 86.5,33.5C 87.8485,38.0474 89.6818,42.3807 92,46.5C 92.4955,48.4727 92.6621,50.4727 92.5,52.5C 91.2876,51.7701 90.2876,50.7701 89.5,49.5C 88.914,49.7093 88.414,50.0426 88,50.5C 87.6898,56.2903 86.8565,61.957 85.5,67.5C 85.5,68.1667 85.1667,68.5 84.5,68.5C 85.0588,64.1474 85.7255,59.814 86.5,55.5C 86.1337,48.3186 83.8004,41.9852 79.5,36.5C 79.4095,33.8478 80.0762,31.5145 81.5,29.5 Z"/></g>
<g><path style="opacity:0.675" fill="#6d6155" d="M 99.5,39.5 C 101.718,42.7193 102.885,46.386 103,50.5C 103.808,54.0267 103.641,57.3601 102.5,60.5C 102.151,53.3912 101.151,46.3912 99.5,39.5 Z"/></g>
<g><path style="opacity:0.996" fill="#a0a0a0" d="M 40.5,36.5 C 40.8333,36.5 41.1667,36.5 41.5,36.5C 43.7448,37.2919 44.0781,38.6253 42.5,40.5C 35.3484,47.3048 33.6817,55.3048 37.5,64.5C 38.2485,66.3325 39.2485,67.9991 40.5,69.5C 40.9118,71.9726 39.9118,73.3059 37.5,73.5C 35.423,70.3497 33.5896,67.0164 32,63.5C 31.501,59.1794 31.3343,54.8461 31.5,50.5C 32.9344,44.7504 35.9344,40.0838 40.5,36.5 Z"/></g>
<g><path style="opacity:0.996" fill="#efefee" d="M 67.5,35.5 C 71.8064,37.4757 75.1397,40.4757 77.5,44.5C 79.3169,49.2408 79.9836,54.2408 79.5,59.5C 79.0231,62.655 78.0231,65.655 76.5,68.5C 75.3054,68.1344 74.6387,67.301 74.5,66C 75.7783,61.0236 75.7783,56.1902 74.5,51.5C 73.429,47.0236 71.0957,43.3569 67.5,40.5C 67.2488,38.8297 66.5822,37.3297 65.5,36C 66.0944,35.5357 66.7611,35.369 67.5,35.5 Z"/></g>
<g><path style="opacity:0.996" fill="#aeacab" d="M 85.5,20.5 C 88.4883,22.4897 91.1549,24.8231 93.5,27.5C 93.7497,29.674 94.7497,31.3406 96.5,32.5C 98.0348,36.8035 98.3681,41.1369 97.5,45.5C 95.0191,51.1455 93.8525,57.1455 94,63.5C 93.6174,64.056 93.1174,64.3893 92.5,64.5C 92.5,60.5 92.5,56.5 92.5,52.5C 92.6621,50.4727 92.4955,48.4727 92,46.5C 89.6818,42.3807 87.8485,38.0474 86.5,33.5C 86.9175,32.7784 87.5842,32.2784 88.5,32C 88.1667,31.6667 87.8333,31.3333 87.5,31C 89.6044,29.1644 89.9377,26.9977 88.5,24.5C 87.3801,25.8334 86.0468,26.3334 84.5,26C 86.8305,24.5125 87.1638,22.6791 85.5,20.5 Z"/></g>
<g><path style="opacity:0.314" fill="#807469" d="M 10.5,40.5 C 10.5,41.8333 10.5,43.1667 10.5,44.5C 9.83333,45.1667 9.16667,45.8333 8.5,46.5C 8.25939,44.1016 8.92606,42.1016 10.5,40.5 Z"/></g>
<g><path style="opacity:0.996" fill="#b7b7b7" d="M 67.5,40.5 C 71.0957,43.3569 73.429,47.0236 74.5,51.5C 74.5,51.8333 74.5,52.1667 74.5,52.5C 73.3221,51.3381 72.1554,50.3381 71,49.5C 69.6824,53.9675 68.1824,58.3008 66.5,62.5C 69.1243,55.4175 67.4576,49.7508 61.5,45.5C 61.0472,44.5416 60.3805,43.7083 59.5,43C 61.1667,42 62.5,40.6667 63.5,39C 65.0657,38.7003 66.399,39.2003 67.5,40.5 Z"/></g>
<g><path style="opacity:0.067" fill="#2d1c10" d="M 92.5,23.5 C 101.615,32.5012 105.615,43.5012 104.5,56.5C 104.408,61.2013 104.075,65.868 103.5,70.5C 102.521,67.3752 102.187,64.0419 102.5,60.5C 103.641,57.3601 103.808,54.0267 103,50.5C 102.885,46.386 101.718,42.7193 99.5,39.5C 99.2413,36.7282 98.2413,34.3949 96.5,32.5C 94.7497,31.3406 93.7497,29.674 93.5,27.5C 93.1667,26.1667 92.8333,24.8333 92.5,23.5 Z"/></g>
<g><path style="opacity:0.999" fill="#c1c1c1" d="M 51.5,44.5 C 52.5,44.5 53.5,44.5 54.5,44.5C 54.1021,49.1929 52.6021,53.5262 50,57.5C 48.2544,59.4567 46.0878,60.4567 43.5,60.5C 43.5,58.1667 43.5,55.8333 43.5,53.5C 44.5764,48.9693 47.243,45.9693 51.5,44.5 Z"/></g>
<g><path style="opacity:0.996" fill="#f0f0f0" d="M 61.5,45.5 C 67.4576,49.7508 69.1243,55.4175 66.5,62.5C 64.0922,64.9162 61.4256,66.9162 58.5,68.5C 55.7628,68.5987 53.0961,68.2653 50.5,67.5C 49.5707,66.6851 48.5707,65.8518 47.5,65C 51.0238,58.7918 54.6905,52.6251 58.5,46.5C 59.325,45.6143 60.325,45.281 61.5,45.5 Z"/></g>
<g><path style="opacity:0.996" fill="#f4f4f4" d="M 92.5,52.5 C 92.5,56.5 92.5,60.5 92.5,64.5C 91.4254,68.1403 89.7587,71.4737 87.5,74.5C 86.3399,72.8308 86.3399,70.9975 87.5,69C 87.1639,67.9701 86.4972,67.4701 85.5,67.5C 86.8565,61.957 87.6898,56.2903 88,50.5C 88.414,50.0426 88.914,49.7093 89.5,49.5C 90.2876,50.7701 91.2876,51.7701 92.5,52.5 Z"/></g>
<g><path style="opacity:0.99" fill="#e9e6e7" d="M 10.5,44.5 C 10.3345,48.5138 10.5012,52.5138 11,56.5C 12.0644,54.3073 13.3977,52.3073 15,50.5C 15.1667,51 15.3333,51.5 15.5,52C 12.8179,56.5723 12.1513,61.4056 13.5,66.5C 15.6363,61.9807 16.9696,57.314 17.5,52.5C 17.4164,58.8775 17.4164,65.0441 17.5,71C 16.1885,73.4799 15.1885,75.9799 14.5,78.5C 13.8826,78.3893 13.3826,78.056 13,77.5C 9.00069,67.5613 7.50069,57.228 8.5,46.5C 9.16667,45.8333 9.83333,45.1667 10.5,44.5 Z"/></g>
<g><path style="opacity:0.996" fill="#a4a3a3" d="M 74.5,52.5 C 75.8298,64.8495 70.4965,72.5162 58.5,75.5C 52.5784,76.1437 51.5784,74.6437 55.5,71C 55.1667,70.6667 54.8333,70.3333 54.5,70C 56.0581,69.79 57.3915,69.29 58.5,68.5C 61.4256,66.9162 64.0922,64.9162 66.5,62.5C 68.1824,58.3008 69.6824,53.9675 71,49.5C 72.1554,50.3381 73.3221,51.3381 74.5,52.5 Z"/></g>
<g><path style="opacity:0.996" fill="#adadad" d="M 24.5,54.5 C 24.3336,58.6742 25.0003,62.6742 26.5,66.5C 27.1667,68.5 27.8333,70.5 28.5,72.5C 29.8893,75.3954 29.2226,77.7287 26.5,79.5C 22.7776,74.7219 20.1109,69.3885 18.5,63.5C 20.371,63.1412 21.871,62.1412 23,60.5C 23.1909,58.2922 23.6909,56.2922 24.5,54.5 Z"/></g>
<g><path style="opacity:0.996" fill="#9f9e9d" d="M 97.5,45.5 C 98.5862,45.62 99.2528,46.2867 99.5,47.5C 98.855,54.1231 98.855,60.7898 99.5,67.5C 97.5096,69.6558 95.3429,71.6558 93,73.5C 92.51,74.7932 92.3433,76.1266 92.5,77.5C 91.8826,77.3893 91.3826,77.056 91,76.5C 88.9709,78.05 86.8042,79.3834 84.5,80.5C 85.5,78.5 86.5,76.5 87.5,74.5C 89.7587,71.4737 91.4254,68.1403 92.5,64.5C 93.1174,64.3893 93.6174,64.056 94,63.5C 93.8525,57.1455 95.0191,51.1455 97.5,45.5 Z"/></g>
<g><path style="opacity:0.996" fill="#9d9c9b" d="M 86.5,55.5 C 85.7255,59.814 85.0588,64.1474 84.5,68.5C 82.336,70.822 80.6693,73.4887 79.5,76.5C 77.4451,78.5547 75.1117,80.2213 72.5,81.5C 70.0243,79.3906 70.0243,77.0573 72.5,74.5C 73.4411,72.2279 74.7745,70.2279 76.5,68.5C 78.0231,65.655 79.0231,62.655 79.5,59.5C 80.8676,57.4357 81.8676,55.1024 82.5,52.5C 83.5695,53.9095 84.9028,54.9095 86.5,55.5 Z"/></g>
<g><path style="opacity:0.996" fill="#f3f2f2" d="M 85.5,67.5 C 86.4972,67.4701 87.1639,67.9701 87.5,69C 86.3399,70.9975 86.3399,72.8308 87.5,74.5C 86.5,76.5 85.5,78.5 84.5,80.5C 82.8333,81.5 81.5,82.8333 80.5,84.5C 79.8333,84.8333 79.1667,85.1667 78.5,85.5C 76.4099,85.5499 75.0766,84.5499 74.5,82.5C 76.9377,81.0692 78.6044,79.0692 79.5,76.5C 80.6693,73.4887 82.336,70.822 84.5,68.5C 85.1667,68.5 85.5,68.1667 85.5,67.5 Z"/></g>
<g><path style="opacity:0.129" fill="#5b5142" d="M 102.5,60.5 C 102.187,64.0419 102.521,67.3752 103.5,70.5C 103.5,70.8333 103.5,71.1667 103.5,71.5C 102.041,71.4326 100.708,71.7659 99.5,72.5C 100.262,68.3291 101.262,64.3291 102.5,60.5 Z"/></g>
<g><path style="opacity:0.996" fill="#bcbcbc" d="M 50.5,67.5 C 53.0961,68.2653 55.7628,68.5987 58.5,68.5C 57.3915,69.29 56.0581,69.79 54.5,70C 54.8333,70.3333 55.1667,70.6667 55.5,71C 51.5784,74.6437 52.5784,76.1437 58.5,75.5C 57.3398,76.265 56.3398,77.265 55.5,78.5C 57.7427,79.4742 60.076,79.8076 62.5,79.5C 60.369,80.3138 58.0356,80.8138 55.5,81C 52.7428,82.0302 51.4095,83.6969 51.5,86C 54.8168,86.4983 58.1501,86.665 61.5,86.5C 55.8822,87.8122 50.2156,87.4789 44.5,85.5C 46.7164,80.9323 45.3831,77.9323 40.5,76.5C 39.6935,75.2719 38.6935,74.2719 37.5,73.5C 39.9118,73.3059 40.9118,71.9726 40.5,69.5C 43.177,72.3449 45.177,71.8449 46.5,68C 47.7932,67.51 49.1266,67.3433 50.5,67.5 Z"/></g>
<g><path style="opacity:0.996" fill="#d6d6d6" d="M 31.5,50.5 C 31.3343,54.8461 31.501,59.1794 32,63.5C 33.5896,67.0164 35.423,70.3497 37.5,73.5C 38.6935,74.2719 39.6935,75.2719 40.5,76.5C 40.6106,78.6477 39.944,78.981 38.5,77.5C 37.3044,77.8457 37.3044,78.3457 38.5,79C 37.1667,79.6667 35.8333,79.6667 34.5,79C 32.5998,76.6647 30.5998,74.498 28.5,72.5C 27.8333,70.5 27.1667,68.5 26.5,66.5C 27.7498,66.5774 28.5831,67.244 29,68.5C 29.9755,62.3798 30.8089,56.3798 31.5,50.5 Z"/></g>
<g><path style="opacity:0.996" fill="#dcdcdc" d="M 74.5,51.5 C 75.7783,56.1902 75.7783,61.0236 74.5,66C 74.6387,67.301 75.3054,68.1344 76.5,68.5C 74.7745,70.2279 73.4411,72.2279 72.5,74.5C 69.4769,76.6782 66.1436,78.3449 62.5,79.5C 60.076,79.8076 57.7427,79.4742 55.5,78.5C 56.3398,77.265 57.3398,76.265 58.5,75.5C 70.4965,72.5162 75.8298,64.8495 74.5,52.5C 74.5,52.1667 74.5,51.8333 74.5,51.5 Z"/></g>
<g><path style="opacity:0.996" fill="#d7d7d6" d="M 18.5,48.5 C 18.5,53.5 18.5,58.5 18.5,63.5C 20.1109,69.3885 22.7776,74.7219 26.5,79.5C 28.9042,82.2362 30.9042,85.2362 32.5,88.5C 31.5,88.5 30.5,88.5 29.5,88.5C 29.7778,90.3464 29.1112,91.6798 27.5,92.5C 26.3777,91.3698 25.0443,90.7031 23.5,90.5C 19.7334,87.0678 16.7334,83.0678 14.5,78.5C 15.1885,75.9799 16.1885,73.4799 17.5,71C 17.4164,65.0441 17.4164,58.8775 17.5,52.5C 17.2322,50.901 17.5655,49.5676 18.5,48.5 Z"/></g>
<g><path style="opacity:0.987" fill="#948e8a" d="M 96.5,32.5 C 98.2413,34.3949 99.2413,36.7282 99.5,39.5C 101.151,46.3912 102.151,53.3912 102.5,60.5C 101.262,64.3291 100.262,68.3291 99.5,72.5C 95.6595,82.8434 88.9928,90.8434 79.5,96.5C 79.281,95.325 79.6143,94.325 80.5,93.5C 83.404,90.8238 86.404,88.3238 89.5,86C 89.1667,85.6667 88.8333,85.3333 88.5,85C 90.0823,82.5972 91.4156,80.0972 92.5,77.5C 92.3433,76.1266 92.51,74.7932 93,73.5C 95.3429,71.6558 97.5096,69.6558 99.5,67.5C 98.855,60.7898 98.855,54.1231 99.5,47.5C 99.2528,46.2867 98.5862,45.62 97.5,45.5C 98.3681,41.1369 98.0348,36.8035 96.5,32.5 Z"/></g>
<g><path style="opacity:0.995" fill="#c4c3c3" d="M 28.5,72.5 C 30.5998,74.498 32.5998,76.6647 34.5,79C 35.8333,79.6667 37.1667,79.6667 38.5,79C 37.3044,78.3457 37.3044,77.8457 38.5,77.5C 39.944,78.981 40.6106,78.6477 40.5,76.5C 45.3831,77.9323 46.7164,80.9323 44.5,85.5C 41.2597,87.3198 40.9264,89.4865 43.5,92C 50.8018,93.787 58.1351,93.9537 65.5,92.5C 65.0825,93.2216 64.4158,93.7216 63.5,94C 57.7835,94.2818 52.1169,94.9484 46.5,96C 44.324,96.1629 42.4907,96.9963 41,98.5C 36.7108,96.4592 32.2108,95.1258 27.5,94.5C 25.8608,93.5275 24.5274,92.1942 23.5,90.5C 25.0443,90.7031 26.3777,91.3698 27.5,92.5C 29.1112,91.6798 29.7778,90.3464 29.5,88.5C 30.5,88.5 31.5,88.5 32.5,88.5C 30.9042,85.2362 28.9042,82.2362 26.5,79.5C 29.2226,77.7287 29.8893,75.3954 28.5,72.5 Z"/></g>
<g><path style="opacity:0.996" fill="#a7a7a7" d="M 72.5,74.5 C 70.0243,77.0573 70.0243,79.3906 72.5,81.5C 70.751,83.256 68.751,84.5894 66.5,85.5C 64.7085,85.366 63.0418,85.6993 61.5,86.5C 58.1501,86.665 54.8168,86.4983 51.5,86C 51.4095,83.6969 52.7428,82.0302 55.5,81C 58.0356,80.8138 60.369,80.3138 62.5,79.5C 66.1436,78.3449 69.4769,76.6782 72.5,74.5 Z"/></g>
<g><path style="opacity:0.996" fill="#9c9996" d="M 92.5,77.5 C 91.4156,80.0972 90.0823,82.5972 88.5,85C 88.8333,85.3333 89.1667,85.6667 89.5,86C 86.404,88.3238 83.404,90.8238 80.5,93.5C 79.6143,94.325 79.281,95.325 79.5,96.5C 76.8527,96.9287 74.8527,98.2621 73.5,100.5C 73.1667,100.5 72.8333,100.5 72.5,100.5C 71.8333,100.5 71.1667,100.5 70.5,100.5C 72.0601,97.7924 74.3934,96.1257 77.5,95.5C 77.9202,93.326 77.9202,91.326 77.5,89.5C 79.756,88.5791 80.756,86.9124 80.5,84.5C 81.5,82.8333 82.8333,81.5 84.5,80.5C 86.8042,79.3834 88.9709,78.05 91,76.5C 91.3826,77.056 91.8826,77.3893 92.5,77.5 Z"/></g>
<g><path style="opacity:0.996" fill="#ececec" d="M 79.5,76.5 C 78.6044,79.0692 76.9377,81.0692 74.5,82.5C 75.0766,84.5499 76.4099,85.5499 78.5,85.5C 77.6935,86.7281 76.6935,87.7281 75.5,88.5C 72.1563,89.5075 68.8229,90.5075 65.5,91.5C 63.8561,91.2865 62.3561,91.6198 61,92.5C 60.6905,91.2341 60.1905,90.0674 59.5,89C 61.9944,87.9683 64.3277,86.8017 66.5,85.5C 68.751,84.5894 70.751,83.256 72.5,81.5C 75.1117,80.2213 77.4451,78.5547 79.5,76.5 Z"/></g>
<g><path style="opacity:0.078" fill="#34251b" d="M 103.5,71.5 C 98.457,84.6279 89.7903,94.2945 77.5,100.5C 76.1667,100.5 74.8333,100.5 73.5,100.5C 74.8527,98.2621 76.8527,96.9287 79.5,96.5C 88.9928,90.8434 95.6595,82.8434 99.5,72.5C 100.708,71.7659 102.041,71.4326 103.5,71.5 Z"/></g>
<g><path style="opacity:0.996" fill="#dcdcdc" d="M 44.5,85.5 C 50.2156,87.4789 55.8822,87.8122 61.5,86.5C 63.0418,85.6993 64.7085,85.366 66.5,85.5C 64.3277,86.8017 61.9944,87.9683 59.5,89C 60.1905,90.0674 60.6905,91.2341 61,92.5C 62.3561,91.6198 63.8561,91.2865 65.5,91.5C 65.5,91.8333 65.5,92.1667 65.5,92.5C 58.1351,93.9537 50.8018,93.787 43.5,92C 40.9264,89.4865 41.2597,87.3198 44.5,85.5 Z"/></g>
<g><path style="opacity:0.996" fill="#a2a0a0" d="M 80.5,84.5 C 80.756,86.9124 79.756,88.5791 77.5,89.5C 77.9202,91.326 77.9202,93.326 77.5,95.5C 74.3934,96.1257 72.0601,97.7924 70.5,100.5C 63.1299,102.641 55.7966,102.974 48.5,101.5C 54.7361,102.035 60.7361,101.202 66.5,99C 64.4311,98.6758 64.0977,97.8425 65.5,96.5C 68.903,93.8141 72.2363,91.1474 75.5,88.5C 76.6935,87.7281 77.6935,86.7281 78.5,85.5C 79.1667,85.1667 79.8333,84.8333 80.5,84.5 Z"/></g>
<g><path style="opacity:0.995" fill="#aeaeac" d="M 75.5,88.5 C 72.2363,91.1474 68.903,93.8141 65.5,96.5C 64.0977,97.8425 64.4311,98.6758 66.5,99C 60.7361,101.202 54.7361,102.035 48.5,101.5C 45.8333,101.5 43.1667,101.5 40.5,101.5C 35.7627,99.9639 31.4293,97.6306 27.5,94.5C 32.2108,95.1258 36.7108,96.4592 41,98.5C 42.4907,96.9963 44.324,96.1629 46.5,96C 52.1169,94.9484 57.7835,94.2818 63.5,94C 64.4158,93.7216 65.0825,93.2216 65.5,92.5C 65.5,92.1667 65.5,91.8333 65.5,91.5C 68.8229,90.5075 72.1563,89.5075 75.5,88.5 Z"/></g>
<g><path style="opacity:0.214" fill="#2f1d10" d="M 24.5,94.5 C 25.5,94.5 26.5,94.5 27.5,94.5C 31.4293,97.6306 35.7627,99.9639 40.5,101.5C 45.2328,103.046 50.2328,103.713 55.5,103.5C 59.1667,103.333 62.8333,103.167 66.5,103C 68.7226,102.434 70.7226,101.6 72.5,100.5C 72.8333,100.5 73.1667,100.5 73.5,100.5C 74.8333,100.5 76.1667,100.5 77.5,100.5C 74.2855,102.856 70.6188,104.356 66.5,105C 53.9499,106.889 41.9499,105.222 30.5,100C 28.0038,98.669 26.0038,96.8356 24.5,94.5 Z"/></g>
<g><path style="opacity:0.689" fill="#736960" d="M 70.5,100.5 C 71.1667,100.5 71.8333,100.5 72.5,100.5C 70.7226,101.6 68.7226,102.434 66.5,103C 62.8333,103.167 59.1667,103.333 55.5,103.5C 50.2328,103.713 45.2328,103.046 40.5,101.5C 43.1667,101.5 45.8333,101.5 48.5,101.5C 55.7966,102.974 63.1299,102.641 70.5,100.5 Z"/></g>
</svg>
